<svg xmlns="http://www.w3.org/2000/svg" viewBox="0 0 24 24" width="24" height="24">
  <g fill="#2496ED">
    <rect x="5.5" y="2" width="3.2" height="2.8" rx="0.4"/>
    <rect x="2" y="5.5" width="3.2" height="2.8" rx="0.4"/>
    <rect x="5.5" y="5.5" width="3.2" height="2.8" rx="0.4"/>
    <rect x="9" y="5.5" width="3.2" height="2.8" rx="0.4"/>
    <rect x="2" y="9" width="3.2" height="2.8" rx="0.4"/>
    <rect x="5.5" y="9" width="3.2" height="2.8" rx="0.4"/>
    <rect x="9" y="9" width="3.2" height="2.8" rx="0.4"/>
    <rect x="12.5" y="9" width="3.2" height="2.8" rx="0.4"/>
    <path d="M21 12.7c-.5-1.4-2-1.3-3-.7-.3-2-2.1-2.4-2.9-2.4H1.5C.8 13.1 1.3 18 6.5 18h8.5c3.2 0 5-1.8 5-4 0-.1 0-.2 0-.3z"/>
  </g>
  <circle cx="18.5" cy="11.8" r=".8" fill="white" opacity=".8"/>
</svg>
