<svg xmlns="http://www.w3.org/2000/svg" viewBox="0 0 24 24" width="24" height="24">
  <path d="M3.5 7.2c0-.9.8-1.7 1.7-1.7h4.1c.5 0 1 .2 1.3.6l1 1.1h6.2c.9 0 1.7.8 1.7 1.7v8.4c0 .9-.8 1.7-1.7 1.7H5.2c-.9 0-1.7-.8-1.7-1.7Z" fill="#E3B341" opacity=".8"/>
  <circle cx="9" cy="13" r="1.5" fill="#F14E32"/>
  <circle cx="15" cy="10" r="1.5" fill="#F14E32"/>
  <circle cx="9" cy="17" r="1.5" fill="#F14E32"/>
  <path d="M9 14.5v1" stroke="#F14E32" stroke-width="1.3" stroke-linecap="round"/>
  <path d="M15 11.5c0 2-1.5 3.5-6 3.5" fill="none" stroke="#F14E32" stroke-width="1.3" stroke-linecap="round"/>
</svg>
