<svg xmlns="http://www.w3.org/2000/svg" viewBox="0 0 24 24" width="24" height="24">
  <path d="M11.9 1.6c-4.3 0-4 1.9-4 1.9v2h4.1v.6H6.2S3.1 5.7 3.1 10s2.7 4.1 2.7 4.1h1.6v-2s-.1-2.7 2.5-2.7h4s2.5 0 2.5-2.4V4S17 1.6 11.9 1.6z" fill="#3776AB"/>
  <path d="M12.1 22.3c4.3 0 4-1.9 4-1.9v-2h-4.1v-.6h5.8s3.1.4 3.1-3.9-2.7-4.1-2.7-4.1h-1.6v2s.1 2.7-2.5 2.7h-4s-2.5 0-2.5 2.4V20s-.4 2.3 4.5 2.3z" fill="#FFD43B"/>
  <circle cx="8.9" cy="3.8" r=".7" fill="#fff"/>
  <circle cx="15.1" cy="20.1" r=".7" fill="#fff"/>
</svg>
