<svg xmlns="http://www.w3.org/2000/svg" viewBox="0 0 24 24" width="24" height="24">
  <circle cx="12" cy="12" r="6.5" fill="none" stroke="#CE4A22" stroke-width="1.6"/>
  <circle cx="12" cy="12" r="2.4" fill="#CE4A22"/>
  <g fill="#CE4A22">
    <rect x="11.2" y="2.8" width="1.6" height="2.5" rx="0.4"/>
    <rect x="11.2" y="18.7" width="1.6" height="2.5" rx="0.4"/>
    <rect x="2.8" y="11.2" width="2.5" height="1.6" rx="0.4"/>
    <rect x="18.7" y="11.2" width="2.5" height="1.6" rx="0.4"/>
    <rect x="5.5" y="5.0" width="1.5" height="2.3" rx="0.4" transform="rotate(45 6.3 6.2)"/>
    <rect x="17.0" y="16.5" width="1.5" height="2.3" rx="0.4" transform="rotate(45 17.8 17.7)"/>
    <rect x="16.5" y="5.0" width="1.5" height="2.3" rx="0.4" transform="rotate(-45 17.3 6.2)"/>
    <rect x="5.0" y="16.5" width="1.5" height="2.3" rx="0.4" transform="rotate(-45 5.8 17.7)"/>
  </g>
</svg>
