<svg xmlns="http://www.w3.org/2000/svg" viewBox="0 0 24 24" width="24" height="24">
  <path d="M20.5 7.5c-1.5-3.5-5-5-8.5-3.5L5.5 7c-3 1.5-4 5-2.5 8 1 2 3 3.5 5 4l6.5-3c3-1.5 4-5 2.5-8-.5-1-1.5-1.5-1.5-1.5s.5.5.5 1.5c0 2-1.5 3.5-3.5 4.5C10 13.5 8 13 6.5 11.5 5 9.5 5.5 7 8.5 5.5c0 0 3.5-1.5 6-1 1.5.3 2.5 1.5 3 3z" fill="#FF3E00"/>
  <path d="M3.5 16.5c1.5 3.5 5 5 8.5 3.5l6.5-3c3-1.5 4-5 2.5-8-1-2-3-3.5-5-4l-6.5 3c-3 1.5-4 5-2.5 8 .5 1 1.5 1.5 1.5 1.5s-.5-.5-.5-1.5c0-2 1.5-3.5 3.5-4.5 2-.5 4 0 5.5 1.5 1.5 2 1 4.5-2 6 0 0-3.5 1.5-6 1-1.5-.3-2.5-1.5-3-3z" fill="#FF3E00" opacity=".5"/>
</svg>
