<svg xmlns="http://www.w3.org/2000/svg" viewBox="0 0 24 24" width="24" height="24">
  <path d="M13 2H6a2 2 0 0 0-2 2v16a2 2 0 0 0 2 2h12a2 2 0 0 0 2-2V9z" fill="#ECA517"/>
  <path d="M13 2v7h7" fill="none" stroke="rgba(0,0,0,.2)" stroke-width="1.2"/>
  <rect x="10" y="3" width="4" height="2" rx=".5" fill="rgba(0,0,0,.25)"/>
  <rect x="10" y="7" width="4" height="2" rx=".5" fill="rgba(0,0,0,.25)"/>
  <rect x="10" y="11" width="4" height="2" rx=".5" fill="rgba(0,0,0,.25)"/>
  <path d="M10 15h4v4a2 2 0 0 1-2 2 2 2 0 0 1-2-2z" fill="rgba(0,0,0,.25)"/>
</svg>
